<svg width="120" height="120" viewBox="0 0 120 120" xmlns="http://www.w3.org/2000/svg" fill="none">
  <!-- Background -->
  <rect width="120" height="120" rx="20" fill="#E50914"></rect>

  <!-- Ticket Shape with stylized B -->
  <path d="M35 25 C30 25, 25 35, 35 40 C25 45, 25 55, 35 60 C25 65, 25 75, 35 80 C25 85, 30 95, 35 95 H70 C85 95, 90 85, 90 75 C90 65, 85 60, 75 60 C85 60, 90 55, 90 45 C90 35, 85 25, 70 25 H35 Z" fill="white"></path>

  <!-- Letter B inside ticket -->
  <path d="M45 35 H65 C70 35, 75 40, 75 45 C75 50, 70 55, 65 55 H45 V35 Z M45 60 H65 C70 60, 75 65, 75 70 C75 75, 70 80, 65 80 H45 V60 Z" fill="#E50914"></path>
</svg>
